<?xml version="1.0" encoding="UTF-8"?>
<svg width="600" height="400" viewBox="0 0 600 400" fill="none" xmlns="http://www.w3.org/2000/svg">
  <!-- Background shapes -->
  <circle cx="300" cy="200" r="180" fill="#EBF5FF" />
  <circle cx="300" cy="200" r="150" fill="#D1E9FF" />
  
  <!-- Document shapes -->
  <rect x="200" y="100" width="200" height="250" rx="10" fill="white" stroke="#3498db" stroke-width="3"/>
  <rect x="220" y="120" width="160" height="20" rx="5" fill="#3498db" opacity="0.2"/>
  <rect x="220" y="150" width="120" height="10" rx="5" fill="#3498db" opacity="0.1"/>
  <rect x="220" y="170" width="140" height="10" rx="5" fill="#3498db" opacity="0.1"/>
  <rect x="220" y="190" width="100" height="10" rx="5" fill="#3498db" opacity="0.1"/>
  
  <!-- Chart elements -->
  <rect x="220" y="220" width="30" height="80" rx="5" fill="#3498db" opacity="0.6"/>
  <rect x="260" y="240" width="30" height="60" rx="5" fill="#3498db" opacity="0.4"/>
  <rect x="300" y="200" width="30" height="100" rx="5" fill="#3498db"/>
  <rect x="340" y="260" width="30" height="40" rx="5" fill="#3498db" opacity="0.5"/>
  
  <!-- Decorative elements -->
  <circle cx="450" cy="150" r="20" fill="#3498db" opacity="0.2"/>
  <circle cx="150" cy="250" r="15" fill="#3498db" opacity="0.2"/>
  <circle cx="400" cy="300" r="10" fill="#3498db" opacity="0.2"/>
</svg> 